<svg xmlns="http://www.w3.org/2000/svg" viewBox="0 0 300 70">
  <path fill="#5076b8" d="M110.5 11.37L109 13.3h1.17l2.13-1.89v-.04h-1.8zm-13.85 2.3a5.52 5.52 0 00-5.37 5.83 5.16 5.16 0 005.46 5.58 6.84 6.84 0 002.91-.51l-.31-1.14a5.63 5.63 0 01-2.32.47c-2.68 0-4.24-1.73-4.24-4.44 0-2.9 1.73-4.56 4.31-4.56a5 5 0 012.25.47l.35-1.17a5.97 5.97 0 00-2.63-.52 5.52 5.52 0 00-.41 0zm35.87 0a5.52 5.52 0 00-5.37 5.83 5.16 5.16 0 005.47 5.58 6.84 6.84 0 002.9-.51l-.32-1.14a5.63 5.63 0 01-2.3.47c-2.68 0-4.25-1.73-4.25-4.44 0-2.9 1.73-4.56 4.31-4.56a5 5 0 012.25.47l.35-1.17a5.97 5.97 0 00-2.63-.52 5.52 5.52 0 00-.41 0zm33.49.01c-2.99 0-5.15 2.32-5.15 5.83 0 3.33 2.04 5.6 4.94 5.6 2.84 0 5.15-2 5.15-5.8 0-3.27-1.96-5.58-4.94-5.63zm10.05 0c-2.17 0-3.58 1.25-3.58 2.99 0 1.57 1.11 2.52 2.91 3.14 1.5.6 2.08 1.18 2.08 2.2 0 1.11-.86 1.89-2.32 1.89a5.02 5.02 0 01-2.55-.72l-.32 1.23a5.77 5.77 0 002.83.7c2.59 0 3.85-1.49 3.85-3.18 0-1.65-.94-2.54-2.83-3.26-1.53-.59-2.2-1.1-2.2-2.13 0-.74.6-1.64 2.08-1.64a4.4 4.4 0 012.09.52l.39-1.18a4.94 4.94 0 00-2.43-.56zm56.59.1a4.4 4.4 0 00-.44.03 14.06 14.06 0 00-2.75.23v10.89h1.42v-4.79h1.33c1.3.06 1.89.62 2.2 2.16a13.02 13.02 0 00.74 2.63h1.5a16.34 16.34 0 01-.86-3.03 2.72 2.72 0 00-1.62-2.23v-.05a2.9 2.9 0 002.09-2.82 2.82 2.82 0 00-.87-2.09 4.4 4.4 0 00-2.74-.93zm-48.58.06a4.58 4.58 0 00-.46.01 16.53 16.53 0 00-2.75.2h.04v10.96h1.41v-4.44a5.02 5.02 0 001.14.06 4.6 4.6 0 003.38-1.2 3.34 3.34 0 00.86-2.36 3.03 3.03 0 00-.98-2.32 4.58 4.58 0 00-2.64-.91zm-82.6.04v11.05h6.11v-1.18h-4.71v-9.87h-1.4zm7.73 0v11.05h1.4V13.89h-1.4zm10.85 0v4.65a55.04 55.04 0 00.15 4.56h-.03a30.6 30.6 0 00-1.97-3.58l-3.54-5.58h-1.56v10.94h1.32v-4.7c0-1.86-.04-3.2-.1-4.56h.03a35.03 35.03 0 002.08 3.7l3.49 5.61h1.46V13.88h-1.33zm-6.95 10.99h-.01l.01.1v-.1zm10.8-10.99v11.05h1.4V13.88h-1.4zm16.33 0l-3.77 11.05h1.5l1.14-3.46h3.92l1.17 3.46h1.54l-3.76-11.05h-1.74zm10.62 0v11.04h1.4v-5.18h5.35v5.18h1.45V13.88h-1.45v4.65h-5.35v-4.65h-1.4zm38.77 0v11.05h1.42V13.88h-1.42zm2.63 0v1.23h3.34v9.81h1.46V15.1h3.38v-1.22h-8.18zm12.33 0l-3.77 11.05h1.5l1.14-3.46h3.92l1.18 3.46h1.53l-3.75-11.05h-1.75zm7.12 0v11.05h6.13v-1.18h-4.72v-9.87h-1.41zm10.64 0l-3.77 11.05h1.5l1.13-3.46h3.93l1.17 3.46h1.54l-3.76-11.05h-1.74zm-56.46 1.02c2.4 0 3.55 2.28 3.55 4.48 0 2.52-1.26 4.6-3.55 4.6-2.23 0-3.53-2.12-3.53-4.47v-.01c0-2.44 1.18-4.64 3.53-4.6zm66.36 0c1.54.04 2.56.68 2.56 2.09 0 1.26-.94 2.08-2.47 2.08h-1.49v-4.04a8.07 8.07 0 011.4-.13zm-48.6.05c1.58 0 2.6.7 2.6 2.17 0 1.52-1.02 2.35-2.75 2.35a4.96 4.96 0 01-1.18-.12v-4.28a5.09 5.09 0 011.33-.12zm-42.66.23h.04c.19.63.36 1.3.59 2.02l1.1 3.17-3.38.01 1.1-3.2c.2-.67.4-1.32.55-2zm64.35 0h.04c.19.62.36 1.29.6 2l1.1 3.19-3.38.01 1.1-3.2c.19-.67.39-1.33.54-2zm17.76 0h.04c.2.63.36 1.3.6 2.02l1.09 3.17-3.37.01 1.1-3.2c.2-.67.39-1.32.54-2zM91.26 29.75v28.4h4.75V48.01c0-4.68-.03-8.45-.23-12.1l.12-.04a101.47 101.47 0 005.1 9.83l7.43 12.45h5.31v-28.4h-4.8v9.9c0 4.31.12 7.98.47 11.78h-.07a77.47 77.47 0 00-4.84-9.5l-7.34-12.18h-5.9zm97.75 0v28.4h4.71V48.01c0-4.68-.02-8.45-.22-12.1l.1-.04a101.47 101.47 0 005.12 9.83l7.42 12.45h5.34v-28.4h-4.8v9.9c0 4.31.13 7.98.48 11.78h-.07a77.48 77.48 0 00-4.84-9.5l-7.35-12.18h-5.89zm88.16 7.34c-6.55 0-10.01 5.34-10.01 11.04 0 6.27 3.93 10.37 10.57 10.37a19.46 19.46 0 007.14-1.26l-.74-3.57a15.51 15.51 0 01-5.7.93c-3.29 0-6.2-1.6-6.33-5.3v-.04h13.76a13.72 13.72 0 00.16-2.2c0-4.52-2.2-9.97-8.85-9.97zm-54.55.08a14.64 14.64 0 00-7.01 1.8l1.02 3.38a10.89 10.89 0 015.54-1.54c3.62 0 4.17 2.26 4.17 3.59v.35c-7.59-.04-12.19 2.56-12.19 7.74a6.1 6.1 0 006.45 6.13 7.58 7.58 0 006.05-2.75h.12l.35 2.28h4.7a29.4 29.4 0 01-.3-4.91v-7.43c0-4.47-1.94-8.64-8.5-8.64a14.64 14.64 0 00-.4 0zm-95.45 0c-6.18 0-10.62 4.13-10.62 10.88 0 6.56 4.48 10.57 10.3 10.57 5.23 0 10.53-3.38 10.53-10.92h-.01c0-6.25-4.08-10.57-10.2-10.53zm41.81 0c-6.18 0-10.61 4.13-10.61 10.88 0 6.56 4.48 10.57 10.29 10.57 5.23 0 10.53-3.38 10.53-10.92 0-6.25-4.09-10.57-10.21-10.53zm73.34 0c-4.75 0-7.73 2.82-7.73 6.44-.04 2.4 1.66 4.6 5.66 5.97 2.56.87 3.38 1.62 3.38 2.99 0 1.33-1.03 2.28-3.3 2.28a11.7 11.7 0 01-5.27-1.5L234 57.18a13.59 13.59 0 006.25 1.4c5.42 0 8.32-2.71 8.32-6.4-.03-3.03-1.77-4.97-5.46-6.3-2.6-.93-3.57-1.56-3.57-2.86 0-1.25 1.02-2.15 2.87-2.15a9.16 9.16 0 014.32 1.17l1.02-3.65a12.02 12.02 0 00-5.43-1.22zm56.46 0a6.15 6.15 0 00-5.61 4.4h-.15l-.17-3.93h-4.51c.12 1.84.15 3.81.15 6.59l-.02 13.92h5.2V47.54a9.76 9.76 0 01.15-1.62 4.59 4.59 0 014.64-3.92 8.02 8.02 0 011.54.16v-4.87a5.83 5.83 0 00-1.22-.12zm-37.43.01c-7.24 0-11.44 4.8-11.44 10.96 0 6.34 4.17 10.44 10.57 10.44a14.97 14.97 0 005.82-1.06l-.7-3.8a10.73 10.73 0 01-4.1.79c-3.53 0-6.28-2.4-6.28-6.6-.04-3.74 2.31-6.65 6.28-6.65a8.98 8.98 0 013.94.8l.93-3.9a13 13 0 00-5.02-.98zm-123.73.42l7.62 20.5h5.1l7.83-20.5h-5.46l-3.27 10.41a89.03 89.03 0 00-1.38 5.14h-.1a47.95 47.95 0 00-1.38-5.14l-3.34-10.41h-5.62zm139.25 3.06c3.45 0 4.28 3.14 4.23 5.03h-9c.2-2.13 1.54-5.03 4.77-5.03zm-149.83.28c3.58 0 4.99 3.65 4.99 6.88 0 4.12-2.08 7.02-5.03 7.02-3.17 0-5.1-2.98-5.1-6.94 0-3.43 1.5-6.96 5.14-6.96zm41.82 0c3.58 0 4.98 3.65 4.98 6.88 0 4.12-2.07 7.02-5.02 7.02-3.18 0-5.1-2.98-5.1-6.94 0-3.43 1.49-6.96 5.14-6.96zm57.59 7.16v2.81a3.97 3.97 0 01-.16 1.15 4.18 4.18 0 01-4.05 2.83 2.72 2.72 0 01-2.94-2.94c0-3.15 3.49-3.94 7.15-3.85z"/>
  <path fill="#5076b8" d="M38.47 0c-1.72 0-3.12 1.76-3.12 3.94-.04 2.14 1.36 3.94 3.12 3.94 1.72 0 3.12-1.76 3.12-3.95 0-2.18-1.4-3.93-3.12-3.93zm16.9.5c-9.8 13.8-26.9 9.96-34.05.58 3.32 12.7 26.44 18.65 34.05-.57zm-34.05.58v-.02h-.02l.02.02zm37.98 2.9c-9.36 9.2-2.96 32.27 17.44 29.26-16.82-1.6-22.03-18.38-17.44-29.27zm-41.86.59c4.6 10.88-.6 27.65-17.44 29.25C20.4 36.8 26.81 13.76 17.44 4.57zm48.55 12.38c-.72.02-1.48.24-2.2.65-1.86 1.08-2.69 3.14-1.83 4.67.9 1.48 3.13 1.83 5 .74 1.86-1.08 2.68-3.15 1.83-4.68h-.01c-.54-.95-1.6-1.43-2.8-1.38zm-55.22.56c-1.2-.04-2.26.45-2.8 1.38-.86 1.52-.05 3.58 1.82 4.66 1.88 1.1 4.1.76 5-.73.86-1.53.04-3.59-1.83-4.68a4.73 4.73 0 00-2.2-.63zm32.59.36c-.99.07-3.21 1.29-5.12 5.1 2.1 3.02 2.33 7.26 1.72 11.13 3.86-3.67 6.24-8.7 3.4-16.23zm-11.6 1.6c-.74.67-1.71 3-.82 7.17 3.5 1.06 6.36 4.21 8.27 7.62h.01c.74-5.31-.54-10.74-7.46-14.8zm19.15 4.95c-1.2 0-2.82.28-4.8 1.1-.38 3.62-2.98 7.01-5.96 9.52 5.35-.24 10.46-2.5 13.15-10.02-.38-.32-1.18-.6-2.39-.6zm-25.1 2.48c-.88 0-1.81.05-2.8.18-.2.96.51 3.42 3.74 6.16 3.4-1.33 7.61-.56 11.2.92-2.36-4.06-5.97-7.22-12.13-7.26zm12.15 7.26v.01-.01zm12.87-2.56c-2.33 2.85-6.38 4.17-10.25 4.6 4.56 2.77 10.06 3.75 16.54-1.02-.32-.94-2.12-2.77-6.29-3.58zm-20.96 1.82c-3.05.1-6.25 1.33-9.54 4.37.43.9 2.38 2.5 6.63 2.85 2-3.04 5.89-4.83 9.68-5.68-2.13-1-4.4-1.62-6.77-1.54zm6.64 2.79c-5.25.96-10.02 3.9-11.65 11.74.85.5 3.38.66 7.06-1.49-.12-3.67 1.98-7.37 4.6-10.25zm36.71.6c-17.5.1-22.56 20.9-13.77 29.51-4.6-10.88.63-27.65 17.44-29.25-1.28-.19-2.5-.27-3.67-.26zm-69.47.07c-1.17 0-2.4.08-3.67.27 16.82 1.6 22.05 18.37 17.44 29.25 8.79-8.62 3.74-29.43-13.77-29.52zm36.11.38c2.28 4.84 6.29 8.69 14.29 8.39.27-.93-.2-3.43-3.2-6.47-3.52 1-7.61-.13-11.09-1.92zm-2.5.24c-3.73 3.82-5.87 8.96-2.75 16.34.97-.08 3.16-1.4 4.91-5.3-2.2-2.93-2.62-7.18-2.15-11.04zm1.35.27c-.86 5.3.34 10.74 7.18 14.91.73-.63 1.75-2.98.93-7.15-3.47-1.1-6.24-4.32-8.11-7.76zm26.23 8.93c-1.19-.04-2.27.44-2.83 1.37-.86 1.52-.04 3.59 1.82 4.67 1.87 1.1 4.1.76 5-.73.86-1.52.04-3.59-1.82-4.67a4.6 4.6 0 00-2.17-.64zm-52.9.04c-.72.02-1.47.23-2.18.64-1.87 1.08-2.68 3.15-1.83 4.66h.01c.9 1.53 3.11 1.84 4.99.75 1.87-1.1 2.69-3.15 1.83-4.68-.56-.93-1.64-1.4-2.83-1.37zM38.9 57.15c-7.65-.02-15.14 4.63-17.08 11.32 7.4-9.21 24.6-12.61 34 1.45-3.3-9.1-10.17-12.75-16.92-12.77zm.23 4.97c-1.71-.04-3.2 1.67-3.23 3.87-.08 2.18 1.28 3.97 3.04 4.01 1.72.04 3.2-1.69 3.23-3.87.08-2.19-1.29-3.98-3.05-4.01z"/>
</svg>
