<svg xmlns="http://www.w3.org/2000/svg" viewBox="0 0 256 256" width="80" height="80">
  <path fill="#FFFFFF" d="M200.11 145.039c-12.486-1.07-8.43 12.161-21.604 10.8-24.074-2.48-33.602-16.62-65.663-17.457-17.025-.447-32.733 10.997-38.22 9.985-7.77-1.432-22.865-7.466-22.035-27.013.842-19.519 12.467-31.597 29.512-37.42 17.035-5.81 51.941-19.938 51.941-48.6C134.041 6.656 112.844 0 107.03 0c-5.812 0-6.398 5.534.422 7.899 7.064 2.451 17.03 13.293 17.03 24.094 0 10.82-1.24 28.675-41.964 39.904-40.725 11.217-46.83 34.911-46.83 50.283 0 15.368 8.605 39.877 34.362 41.133 4.573-.42 5.603 3.786 4.573 7.064-1.11 3.543-1.67 19.575 1.24 27.068 2.913 7.472 0 7.472-5.813 10.373-5.821 2.93-28.669 14.555-28.669 14.555s-4.99 4.573-1.248 9.557c3.741 4.982 16.613 25.349 27.42 19.94 4.992-2.91-4.567-11.202-13.705-17.86-2.08-2.08-4.164-4.999 3.318-5.825 7.481-.827 40.717-5.392 41.137-29.914.141-4.698.831-3.736 4.99-1.664 4.159 2.08 17.446 5.828 15.784 12.463-1.663 6.645-2.074 22.023-2.074 27.84-2.905 1.664-4.99 9.565 7.478 13.3 12.47 3.738 28.68 7.214 28.262 2.56-.418-4.633-15.802-6.702-23.691-10.457-4.57-2.064-3.322-4.987.836-13.303 4.153-8.309 12.885-29.082 4.984-34.892-3.321-1.663-.825-4.573 5.82-3.318 6.649 1.227 9.14 1.656 5.817 6.645-3.328 4.99-5.413 11.626-2.497 21.612 2.914 9.954 8.735 29.495 8.735 29.495s.414 5.438 6.224 6.466c5.82 1.006 17.453 2.667 17.045-3.56-.417-6.233-9.562-4.563-12.88-4.155-3.333.42-5.414-4.57-4.583-12.044.835-7.481.835-29.503 6.237-28.255 5.397 1.243.423 10.383 25.342 34.892 7.906 9.561 13.715 9.546 21.612 9.154 7.894-.418 10.386-5.824-4.568-8.317-8.727-.837-7.483-.419-11.642-9.56-4.148-9.14-12.462-16.207-12.462-22.017 0-5.82 7.482-13.73 7.06-27.038 0-5.402 3.748-5.812 7.906-2.9 4.153 2.9 15.504 1.222 20.004-5.004 4.505-6.246 1.6-10.384-2.56-16.636-2.909-6.23.705-13.169-15.37-14.54z"/>
</svg>