<svg xmlns="http://www.w3.org/2000/svg" viewBox="0 0 256 256">
  <path fill="#5076b8" d="M128.083 11.469c-5.726 0-10.388 5.86-10.388 13.118-.133 7.125 4.528 13.118 10.388 13.118 5.727 0 10.388-5.86 10.388-13.152 0-7.258-4.661-13.084-10.388-13.084zm56.268 1.664C151.722 59.08 94.789 46.295 70.983 15.065c11.054 42.283 88.03 62.093 113.368-1.898zM70.983 15.065v-.067h-.066zm126.452 9.655c-31.163 30.63-9.855 107.44 58.066 97.42-56.001-5.328-73.348-61.196-58.066-97.453zm-139.37 1.964C73.381 62.908 56.068 118.743 0 124.07c67.92 9.922 89.262-66.788 58.065-97.386zM219.71 67.903c-2.397.066-4.927.799-7.325 2.164-6.192 3.596-8.956 10.454-6.092 15.548 2.996 4.928 10.42 6.093 16.647 2.464 6.192-3.596 8.923-10.488 6.093-15.582h-.034c-1.798-3.163-5.327-4.76-9.322-4.594zM35.858 69.767c-3.995-.133-7.525 1.498-9.322 4.595-2.864 5.06-.167 11.92 6.06 15.515 6.258 3.662 13.65 2.53 16.646-2.43 2.864-5.095.133-11.953-6.093-15.582a15.748 15.748 0 00-7.324-2.098zm108.506 1.199c-3.296.233-10.687 4.295-17.047 16.98 6.992 10.055 7.758 24.171 5.727 37.056 12.852-12.219 20.776-28.966 11.32-54.036zm-38.621 5.327c-2.464 2.23-5.694 9.988-2.73 23.872 11.653 3.529 21.175 14.017 27.534 25.37h.033c2.464-17.68-1.798-35.758-24.837-49.276zm63.758 16.48c-3.995 0-9.389.933-15.98 3.663-1.266 12.052-9.923 23.34-19.844 31.696 17.812-.799 34.826-8.324 43.782-33.36-1.265-1.066-3.929-1.999-7.958-1.999zm-83.568 8.257c-2.93 0-6.027.167-9.323.6-.666 3.196 1.698 11.386 12.452 20.51 11.32-4.43 25.337-1.865 37.29 3.062-7.858-13.517-19.877-24.038-40.386-24.172zm40.452 24.172v.033zm42.85-8.523c-7.758 9.489-21.242 13.884-34.127 15.315 15.183 9.223 33.494 12.486 55.07-3.396-1.066-3.13-7.06-9.222-20.943-11.92zm-69.785 6.06c-10.155.332-20.809 4.428-31.763 14.549 1.432 2.996 7.924 8.324 22.074 9.489 6.66-10.122 19.61-16.081 32.23-18.911-7.092-3.33-14.65-5.394-22.54-5.128zm22.108 9.288c-17.48 3.197-33.361 12.985-38.788 39.088 2.83 1.665 11.253 2.197 23.505-4.96-.4-12.22 6.593-24.539 15.316-34.128zm122.223 1.998c-58.265.333-75.112 69.585-45.846 98.252-15.316-36.225 2.097-92.06 58.065-97.386a78.426 78.426 0 00-12.219-.866zm-231.296.233c-3.895 0-7.99.267-12.219.9 56.001 5.326 73.414 61.16 58.066 97.385 29.265-28.7 12.452-97.985-45.847-98.285zm120.226 1.265c7.591 16.115 20.942 28.933 47.578 27.934.899-3.096-.666-11.42-10.654-21.541-11.72 3.33-25.337-.433-36.924-6.393zm-8.323.8c-12.42 12.718-19.544 29.831-9.156 54.402 3.23-.266 10.52-4.66 16.347-17.646-7.325-9.755-8.723-23.905-7.158-36.757zm4.494.898c-2.863 17.646 1.132 35.758 23.906 49.642 2.43-2.097 5.826-9.921 3.096-23.805-11.553-3.663-20.776-14.383-27.002-25.837zm87.331 29.732c-3.962-.133-7.558 1.465-9.422 4.562-2.863 5.06-.133 11.952 6.06 15.548 6.226 3.662 13.65 2.53 16.647-2.43 2.863-5.061.133-11.953-6.06-15.549a15.315 15.315 0 00-7.225-2.13zm-176.127.133c-2.397.067-4.894.766-7.258 2.131-6.226 3.596-8.923 10.488-6.093 15.515h.034c2.996 5.094 10.354 6.127 16.613 2.497 6.227-3.662 8.957-10.487 6.093-15.581-1.864-3.097-5.46-4.661-9.422-4.562zm89.429 34.66c-25.47-.067-50.408 15.415-56.867 37.689 24.638-30.664 81.904-41.984 113.2 4.828-10.986-30.298-33.86-42.45-56.333-42.517zm.766 16.547c-5.694-.133-10.655 5.56-10.754 12.885-.267 7.258 4.261 13.218 10.121 13.351 5.727.133 10.654-5.627 10.754-12.885.266-7.291-4.295-13.251-10.155-13.351z"/>
</svg>
