<svg xmlns="http://www.w3.org/2000/svg" viewBox="0 0 256 166.73">
  <path fill="#FFFFFF" d="M126.2 0c-2.12 0-3.86 2.17-3.86 4.87-.05 2.65 1.69 4.86 3.86 4.86 2.12 0 3.85-2.16 3.85-4.86S128.32 0 126.2 0zm20.86.62c-12.1 17.06-33.25 12.3-42.06.68 4.1 15.7 32.66 23.08 42.06-.68zm4.87 4.3c-11.57 11.37-3.67 39.84 21.53 36.13-20.76-1.97-27.22-22.7-21.53-36.14zm-51.7.72c5.68 13.44-.73 34.16-21.54 36.14 25.2 3.66 33.1-24.77 21.53-36.14zm59.95 15.29c-.89.03-1.83.3-2.71.8-2.31 1.34-3.32 3.89-2.26 5.77 1.1 1.83 3.86 2.27 6.16.92 2.31-1.34 3.33-3.9 2.27-5.78-.67-1.17-1.99-1.76-3.46-1.71zm-68.2.7c-1.48-.05-2.8.55-3.46 1.7-1.06 1.88-.05 4.43 2.26 5.77 2.3 1.35 5.06.91 6.17-.92 1.06-1.88.04-4.43-2.26-5.77a5.83 5.83 0 00-2.72-.79zm40.24.44c-1.2.1-3.95 1.59-6.31 6.31 2.6 3.71 2.89 8.96 2.12 13.73 4.77-4.53 7.7-10.75 4.2-20.04zm-14.31 1.97c-.92.82-2.12 3.72-1.01 8.87 4.33 1.3 7.85 5.2 10.2 9.4h.01c.92-6.56-.67-13.25-9.2-18.27zm23.65 6.11c-1.5 0-3.49.35-5.92 1.36-.48 4.48-3.71 8.68-7.37 11.76 6.6-.29 12.91-3.09 16.24-12.38-.46-.39-1.46-.74-2.95-.74zm-30.98 3.07c-1.1-.01-2.24.06-3.46.22-.25 1.2.62 4.24 4.62 7.6 4.2-1.63 9.4-.66 13.83 1.17-2.9-5.02-7.37-8.93-15-9zm30.9 5.8c-2.9 3.53-7.9 5.16-12.68 5.7 5.64 3.42 12.43 4.62 20.43-1.26-.39-1.15-2.6-3.42-7.76-4.43zm-25.9 2.26c-3.76.12-7.72 1.64-11.79 5.41.53 1.1 2.94 3.08 8.2 3.52 2.45-3.76 7.27-5.98 11.94-7.04a18.45 18.45 0 00-8.36-1.9zm8.2 3.44c-6.5 1.2-12.38 4.81-14.4 14.5 1.06.63 4.2.82 8.72-1.83-.14-4.53 2.46-9.1 5.69-12.67zm45.35.73c-21.62.15-27.85 25.8-17.01 36.47-5.69-13.44.77-34.17 21.54-36.15a30.12 30.12 0 00-4.53-.32zm-85.82.1c-1.44-.02-2.95.09-4.53.32 20.77 1.98 27.23 22.7 21.54 36.14 10.84-10.66 4.61-36.36-17-36.47zm44.63.47c2.8 5.97 7.76 10.74 17.63 10.36.34-1.16-.24-4.25-3.95-8-4.34 1.25-9.4-.15-13.68-2.36zm-3.1.29c-4.62 4.72-7.27 11.08-3.41 20.19 1.2-.1 3.9-1.74 6.07-6.56-2.7-3.61-3.23-8.86-2.65-13.63zm1.64.33c-1.05 6.56.44 13.26 8.87 18.41.92-.77 2.17-3.66 1.16-8.82-4.3-1.35-7.71-5.35-10.03-9.59zm32.41 11.03c-1.46-.04-2.8.56-3.49 1.7-1.06 1.89-.05 4.44 2.26 5.78 2.3 1.34 5.06.92 6.17-.91 1.06-1.89.05-4.44-2.26-5.78-.87-.5-1.8-.76-2.68-.79zm-65.34.05c-.88.03-1.81.28-2.68.79-2.3 1.34-3.32 3.9-2.26 5.78 1.11 1.87 3.86 2.25 6.17.9 2.31-1.33 3.32-3.88 2.26-5.77-.7-1.14-2.03-1.74-3.5-1.7zm33.17 12.86c-9.44-.02-18.7 5.72-21.1 13.98 9.16-11.37 30.4-15.56 42.02 1.79-4.09-11.23-12.58-15.74-20.92-15.77zm.3 6.13c-2.12-.05-3.96 2.07-4 4.77-.1 2.7 1.59 4.91 3.75 4.96 2.12.05 3.96-2.07 4-4.77.1-2.7-1.58-4.91-3.75-4.96zm-66.3 31.47l-1.84 2.36h1.45l2.6-2.32v-.04zm-17 2.83a6.77 6.77 0 00-6.57 7.14 6.34 6.34 0 006.7 6.84 8.39 8.39 0 003.56-.62l-.38-1.4a6.92 6.92 0 01-2.84.58c-3.28 0-5.2-2.12-5.2-5.45 0-3.56 2.11-5.59 5.3-5.59a6.13 6.13 0 012.74.58l.43-1.44a7.32 7.32 0 00-3.23-.63 6.77 6.77 0 00-.5 0zm44 0a6.77 6.77 0 00-6.58 7.14 6.34 6.34 0 006.7 6.84 8.39 8.39 0 003.57-.62l-.39-1.4a6.92 6.92 0 01-2.84.58c-3.28 0-5.2-2.12-5.2-5.45 0-3.56 2.11-5.59 5.3-5.59a6.13 6.13 0 012.74.58l.44-1.44a7.32 7.32 0 00-3.23-.63 6.77 6.77 0 00-.5 0zm41.08 0c-3.66 0-6.31 2.85-6.31 7.14 0 4.1 2.5 6.9 6.07 6.9 3.47 0 6.3-2.47 6.3-7.14 0-4-2.4-6.84-6.06-6.9zm12.33 0c-2.65 0-4.38 1.55-4.38 3.67 0 1.93 1.35 3.08 3.56 3.86 1.84.72 2.56 1.44 2.56 2.7 0 1.34-1.06 2.3-2.84 2.3a6.15 6.15 0 01-3.14-.86l-.38 1.5a7.07 7.07 0 003.47.86c3.18 0 4.72-1.83 4.72-3.9 0-2.03-1.16-3.14-3.47-4-1.88-.72-2.7-1.35-2.7-2.6 0-.92.72-2.03 2.56-2.03a5.39 5.39 0 012.55.63l.48-1.45a6.05 6.05 0 00-2.99-.67zm69.4.12a5.4 5.4 0 00-.54.03 17.25 17.25 0 00-3.37.3v13.34h1.74v-5.88h1.63c1.6.1 2.31.76 2.7 2.65a15.97 15.97 0 00.92 3.23h1.83a20.04 20.04 0 01-1.06-3.71 3.35 3.35 0 00-1.98-2.75v-.05a3.56 3.56 0 002.55-3.47 3.45 3.45 0 00-1.06-2.55 5.4 5.4 0 00-3.36-1.14zm-59.58.07a5.6 5.6 0 00-.57.01 20.27 20.27 0 00-3.37.24l.05.01v13.44h1.73v-5.45a6.15 6.15 0 001.4.1 5.65 5.65 0 004.15-1.5 4.1 4.1 0 001.06-2.89 3.72 3.72 0 00-1.2-2.84 5.6 5.6 0 00-3.25-1.12zm-53.76.05l-4.63 13.54h1.83l1.4-4.24h4.81l1.45 4.24h1.88l-4.62-13.54zm78.93 0l-4.63 13.54h1.83l1.4-4.24h4.81l1.45 4.24h1.88l-4.62-13.54zm21.77 0l-4.62 13.54h1.83l1.4-4.24h4.81l1.45 4.24h1.88l-4.62-13.54zm-148.26 0v13.55h7.51v-1.45h-5.78v-12.1zm9.5 0v13.55h1.73v-13.54zm13.3 0v5.7c0 2.12.04 3.75.18 5.59h-.04a37.53 37.53 0 00-2.41-4.39l-4.34-6.84h-1.93v13.54-.1h1.64v-5.78c0-2.27-.05-3.9-.15-5.6h.05a42.97 42.97 0 002.55 4.54l4.3 6.89h1.77v-13.54zm4.71 0v13.55h1.74v-13.54zm33.06 0v13.55h1.73v-6.36h6.56v6.36h1.78v-13.54h-1.78v5.69h-6.56v-5.7zm47.56 0v13.55h1.73v-13.54zm3.22 0v1.5h4.1v12.05h1.78v-12.05h4.15v-1.5zm23.86 0v13.55h7.51v-1.45h-5.78v-12.1zm-56.18 1.26c2.94 0 4.33 2.8 4.33 5.5 0 3.08-1.54 5.63-4.33 5.63-2.75 0-4.34-2.6-4.34-5.49 0-2.99 1.44-5.69 4.34-5.64zm81.38 0c1.87.05 3.13.82 3.13 2.56 0 1.54-1.15 2.55-3.04 2.55h-1.83v-4.96a9.9 9.9 0 011.74-.15zm-59.6.05c1.92 0 3.18.87 3.18 2.65 0 1.88-1.26 2.9-3.38 2.9a6.08 6.08 0 01-1.45-.15l.01-5.25a6.24 6.24 0 011.64-.15zm26.6.28h.04c.24.77.43 1.6.72 2.46l1.35 3.9h-4.14l1.35-3.9c.24-.82.48-1.64.67-2.46zm-78.93 0h.04c.24.78.44 1.6.72 2.46l1.35 3.9h-4.14l1.35-3.9c.24-.82.48-1.63.68-2.45zm100.7 0h.05c.24.78.43 1.6.72 2.46l1.35 3.9h-4.14l1.35-3.9c.24-.82.48-1.63.67-2.45zM0 131.3v34.84h5.83v-12.43c0-5.73-.05-10.36-.29-14.84l.15-.05a124.44 124.44 0 006.26 12.05l9.1 15.27h6.51V131.3h-5.88v12.15c0 5.3.15 9.78.58 14.45h-.1a95.01 95.01 0 00-5.92-11.66L7.23 131.3zm119.88 0v34.84h5.79v-12.43c0-5.73-.05-10.36-.3-14.84l.15-.05a124.44 124.44 0 006.27 12.05l9.1 15.27h6.56V131.3h-5.88v12.15c0 5.3.14 9.78.58 14.45h-.1a95.02 95.02 0 00-5.93-11.66l-9-14.94zm108.13 9.01c-8.05 0-12.29 6.56-12.29 13.54 0 7.71 4.82 12.72 12.97 12.72a23.86 23.86 0 008.77-1.54l-.92-4.38a19.03 19.03 0 01-6.99 1.15c-4.05 0-7.61-1.97-7.76-6.5v-.05h16.87a16.83 16.83 0 00.2-2.7c0-5.54-2.7-12.24-10.85-12.24zm-66.9.1a17.97 17.97 0 00-8.6 2.22l1.25 4.15a13.35 13.35 0 016.8-1.89c4.42 0 5.1 2.75 5.1 4.39v.43c-9.3-.05-14.94 3.13-14.94 9.5a7.47 7.47 0 007.9 7.51 9.3 9.3 0 007.42-3.37h.15l.43 2.8h5.79a36.06 36.06 0 01-.39-6.03v-9.1c0-5.5-2.36-10.61-10.4-10.61a17.97 17.97 0 00-.51 0zm-117.07 0c-7.57 0-13.01 5.06-13.01 13.35 0 8.04 5.5 12.96 12.62 12.96 6.41 0 12.92-4.14 12.92-13.4 0-7.66-5.01-12.96-12.53-12.91zm51.27 0c-7.57 0-13.01 5.06-13.01 13.35 0 8.04 5.5 12.96 12.62 12.96 6.41 0 12.92-4.14 12.92-13.4 0-7.66-5.01-12.96-12.53-12.91zm89.96 0c-5.83 0-9.5 3.47-9.5 7.9-.04 2.94 2.03 5.64 6.95 7.33 3.13 1.06 4.14 1.97 4.14 3.66 0 1.64-1.25 2.8-4.05 2.8a14.34 14.34 0 01-6.45-1.84l-1.3 4.68a16.67 16.67 0 007.65 1.73c6.65 0 10.22-3.32 10.22-7.85-.05-3.71-2.17-6.08-6.7-7.71-3.18-1.16-4.38-1.93-4.38-3.52 0-1.54 1.25-2.65 3.51-2.65a11.23 11.23 0 015.3 1.44l1.26-4.48a14.74 14.74 0 00-6.65-1.49zm69.24 0a7.55 7.55 0 00-6.89 5.4h-.19l-.2-4.82h-5.53c.14 2.26.19 4.67.19 8.1l-.01 17.05h6.36v-13a11.97 11.97 0 01.19-1.98 5.63 5.63 0 015.69-4.82 9.83 9.83 0 011.88.19v-5.98a7.14 7.14 0 00-1.5-.14zm-45.91.01c-8.87 0-14.03 5.88-14.03 13.44 0 7.8 5.11 12.81 12.97 12.81a18.36 18.36 0 007.13-1.3l-.87-4.66a13.17 13.17 0 01-5.01.96c-4.34 0-7.71-2.93-7.71-8.09-.05-4.58 2.84-8.14 7.7-8.14a11.01 11.01 0 014.83.96l1.15-4.77a15.93 15.93 0 00-6.16-1.2zm-151.74.52l9.34 25.15h6.26l9.6-25.15h-6.7l-4 12.77c-.68 2.27-1.21 4.24-1.7 6.31h-.13a58.8 58.8 0 00-1.69-6.3l-4.1-12.78zm170.77 3.76c4.24 0 5.25 3.85 5.2 6.17H221.8c.24-2.6 1.88-6.17 5.83-6.17zm-183.73.34c4.38 0 6.12 4.48 6.12 8.43 0 5.06-2.56 8.62-6.17 8.62-3.9 0-6.27-3.66-6.27-8.53 0-4.19 1.84-8.52 6.32-8.52zm51.26 0c4.39 0 6.12 4.48 6.12 8.43 0 5.06-2.55 8.62-6.16 8.62-3.9 0-6.27-3.66-6.27-8.53 0-4.19 1.83-8.52 6.31-8.52zm70.64 8.77v3.46a4.87 4.87 0 01-.2 1.4 5.12 5.12 0 01-4.96 3.47 3.34 3.34 0 01-3.6-3.61c0-3.86 4.28-4.82 8.76-4.72z"/>
</svg>