<svg xmlns="http://www.w3.org/2000/svg" viewBox="0 0 256 256" width="80" height="80">
   <path fill="#837753" d="M255.754 17.287c-.664-1.298-2.41-1.448-3.664-1.448-4.348 0-12.859 2.228-25.74 5.6l-4.207 1.1c-19.556 5.1-38.284 19.533-46.282 25.696l-.31.238c7.294-9.523 26.593-38.916 24.988-42.328a1.02 1.02 0 00-.959-.597c-1.76 0-3.719 1.935-7.275 5.448-5.065 5.005-13.541 13.382-28.827 23.449-9.811 6.46-20.396 15.695-29.734 23.842-11.987 10.46-23.311 20.34-28.66 20.34-1.003 0-1.747-.358-2.274-1.096-6.945-9.723-14.088-14.955-21.23-15.55-1.513-.126-3.078-.257-4.668-.257-5.99 0-12.763 1.652-21.693 13.63-1.986 2.663-21.228 4.86-35.277 6.464-7.46.852-13.904 1.588-17.327 2.29-1.866.382-2.688.583-2.61 1.355.076.748.791.81 2.982.81 2.653 0 7.429-.202 12.96-.436 8.44-.356 18.944-.8 27.84-.8 9.572 0 15.438.524 17.434 1.559 7.728 4.008 19.091 18.91 28.947 37.967 9.566 18.49 34.033 38.08 49.519 43.243 11.846 3.948 13.718 14.455 16.551 30.36.723 4.053 1.542 8.647 2.601 13.467 3.556 16.16 5.552 18.338 7.037 18.338 1.28 0 2.104-1.64 2.67-5.318.08-.516.142-1.003.192-1.462 5.328 18.561 8.118 20.954 9.954 20.954.392 0 .742-.172.985-.484 1.092-1.4.006-5.999-1.856-13.386-.972-3.858-2.272-9.018-2.092-10.522 1.477 1.426 5.458 8.807 8.424 14.303 6.745 12.503 9.093 16.396 10.635 16.396.178 0 .35-.047.5-.137 1.616-.97.076-5.384-4.404-16.823-2.358-6.022-4.795-12.246-5.06-14.936 1.361 1.014 4.723 5.346 7.246 8.598 5.23 6.74 7.663 9.694 9.022 9.693a.973.973 0 00.753-.344c.3-.353.368-.907.22-1.796-.607-3.685-5.548-14.948-10.781-26.874-4.486-10.224-9.125-20.798-10.224-24.967-2.41-9.163-16.477-43.872-20.73-52.376-2.826-5.655 7.583-12.143 15.183-16.88 3.337-2.08 6.218-3.876 7.707-5.364 2.4-2.4 5.065-3.585 7.885-4.838 2.808-1.248 5.71-2.538 8.287-5.114 3.46-3.46 4.042-6.37 4.605-9.186.277-1.387.539-2.697 1.134-4.084.78-1.82 3.41-2.868 6.194-3.978 3.263-1.3 6.96-2.775 8.704-5.913 1.224-2.203 1.961-4.805 2.675-7.32 1.056-3.726 2.054-7.245 4.39-7.913 4.482-1.28 11.555-5.737 12.893-10.085l.223-.731c1.302-4.289 4.352-14.33 11.926-24.816 2.538-3.517 3.322-5.605 2.618-6.98z"/>
</svg>